<?xml version="1.0" encoding="UTF-8" standalone="no"?>
<!-- Created with Inkscape (http://www.inkscape.org/) -->

<svg
   version="1.1"
   id="svg26386"
   width="372.16"
   height="117.44"
   viewBox="0 0 372.16 117.44"
   sodipodi:docname="header2.svg"
   inkscape:version="1.2.2 (732a01da63, 2022-12-09)"
   inkscape:export-filename="header3.png"
   inkscape:export-xdpi="402.33908"
   inkscape:export-ydpi="402.33908"
   xmlns:inkscape="http://www.inkscape.org/namespaces/inkscape"
   xmlns:sodipodi="http://sodipodi.sourceforge.net/DTD/sodipodi-0.dtd"
   xmlns:xlink="http://www.w3.org/1999/xlink"
   xmlns="http://www.w3.org/2000/svg"
   xmlns:svg="http://www.w3.org/2000/svg">
  <defs
     id="defs26390">
    <rect
       x="25.602497"
       y="72.320455"
       width="323.06656"
       height="45.134298"
       id="rect29717" />
    <clipPath
       clipPathUnits="userSpaceOnUse"
       id="clipPath45699">
      <path
         style="fill:#b3b3b3;fill-opacity:0.314607;stroke:none;stroke-opacity:1"
         d="m 125.10911,47.245844 15.30871,2.639433 24.81066,0.79183 45.66219,-0.527887 19.00391,-1.319716 6.86253,-1.055773 3.16732,-1.58366 1.05577,1.055773 -1.58366,6.598582 -2.90337,-0.79183 -1.84761,6.334639 -15.83659,-0.263944 0.26394,2.37549 c 0,0 -2.11155,-6.334639 -1.58366,0 0.52789,6.334638 -0.26394,6.862525 -0.26394,6.862525 l 3.6952,-1.055773 0.26395,1.847602 13.19716,-0.527886 h 0.79183 l 0.79183,5.806752 h -17.6842 l 0.79183,23.49095 2.90338,0.527887 v 1.847602 l -1.05578,0.52789 -0.52788,16.36448 -10.02985,0.52789 0.52789,-14.78083 -1.58366,-0.26394 0.79183,-2.63943 1.05577,0.26394 -0.52788,-26.394326 -54.9002,0.527887 -1.31972,25.338553 0.52789,1.847606 -1.05578,16.10054 h -8.44618 l 0.52789,-16.36449 c 0,0 -1.84761,1.84761 -1.58366,-0.52788 0.26394,-2.375492 -1.58366,-2.111549 0.26394,-2.375492 1.8476,-0.263943 1.8476,-0.263943 1.8476,-0.263943 l 1.58366,-22.699121 -17.6842,-1.055773 -0.26394,-5.278866 c 0,0 13.46111,0.79183 13.98899,-0.263943 0.52789,-1.055773 0.52789,-1.055773 0.52789,-1.055773 l 2.90338,0.263943 1.58365,-6.334638 c 0,0 -2.37548,2.375489 -2.37548,0.263943 0,-2.111546 0,-2.111546 0,-2.111546 l -15.8366,-0.263943 c 0,0 1.8476,-4.487036 -1.31972,-5.278865 -3.16732,-0.79183 -3.16732,-0.79183 -3.16732,-0.79183 z"
         id="path45701" />
    </clipPath>
  </defs>
  <sodipodi:namedview
     id="namedview26388"
     pagecolor="#ffffff"
     bordercolor="#000000"
     borderopacity="0.25"
     inkscape:showpageshadow="2"
     inkscape:pageopacity="0.0"
     inkscape:pagecheckerboard="0"
     inkscape:deskcolor="#d1d1d1"
     showgrid="false"
     inkscape:zoom="3.788693"
     inkscape:cx="214.84982"
     inkscape:cy="38.00783"
     inkscape:window-width="1920"
     inkscape:window-height="974"
     inkscape:window-x="-11"
     inkscape:window-y="-11"
     inkscape:window-maximized="1"
     inkscape:current-layer="layer2" />
  <g
     inkscape:groupmode="layer"
     inkscape:label="Image"
     id="g26392">
    <image
       width="372.16"
       height="117.44"
       preserveAspectRatio="none"
       xlink:href="header2.png"
       id="image26394" />
    <rect
       style="fill:#b3b3b3;fill-opacity:0.314607;stroke:none;stroke-width:0.995915;stroke-opacity:1;image-rendering:auto"
       id="rect43779"
       width="312.7728"
       height="48.165756"
       x="27.714043"
       y="71.136597" />
    <path
       style="fill:#b3b3b3;fill-opacity:0.314607;stroke:none;stroke-opacity:1"
       d="m 125.37305,46.454015 7.12647,2.375489"
       id="path45641" />
  </g>
  <g
     inkscape:groupmode="layer"
     id="layer3"
     inkscape:label="Image 2">
    <image
       width="372.16"
       height="117.44"
       preserveAspectRatio="none"
       xlink:href="header2.png"
       id="image26394-6"
       clip-path="url(#clipPath45699)"
       transform="translate(-0.14130402,0.11819847)" />
  </g>
  <g
     inkscape:groupmode="layer"
     id="layer2"
     inkscape:label="Image 1">
    <text
       xml:space="preserve"
       id="text29715"
       style="font-style:normal;font-variant:normal;font-weight:normal;font-stretch:normal;font-size:10.6667px;font-family:Alef;-inkscape-font-specification:'Alef, Normal';font-variant-ligatures:normal;font-variant-caps:normal;font-variant-numeric:normal;font-variant-east-asian:normal;white-space:pre;shape-inside:url(#rect29717);display:inline;fill:#f29a79;fill-opacity:0.74384236;stroke:none"
       transform="translate(55.215865,11.586976)"><tspan
         x="25.601562"
         y="82.184927"
         id="tspan52302">&quot;Disfruta de la experiencia de otros viajeros&quot;</tspan></text>
  </g>
</svg>
